<svg width="65" height="64" viewBox="0 0 65 64" fill="none" xmlns="http://www.w3.org/2000/svg">
<g clip-path="url(#clip0_22_344)">
<path d="M1.84646 40.4786C1.09192 37.7307 0.707764 34.8766 0.707764 32.0019C0.707764 18.8791 8.94944 6.88016 21.2176 2.14844L22.8262 6.3114C12.266 10.3853 5.1733 20.7087 5.1733 32.0019C5.1733 34.4791 5.50254 36.9323 6.15076 39.2964L1.84646 40.4786Z" fill="#58D09E"/>
<path d="M21.0033 2.25038C23.6572 1.21274 26.4556 0.532349 29.3145 0.231864C42.3654 -1.13984 55.1601 5.80246 61.1483 17.5088L57.1762 19.5437C52.0208 9.46722 41.0126 3.49247 29.7813 4.67293C27.3176 4.93187 24.9123 5.51574 22.6289 6.40753L21.0033 2.25038Z" fill="#58D09E"/>
<path d="M47.3551 55.2686C56.0695 49.7138 60.9233 39.8558 60.0215 29.5476C59.7019 25.8951 58.6882 22.4067 57.0135 19.1862L60.9705 17.122C62.918 20.8661 64.0977 24.915 64.469 29.1585C65.5167 41.1341 59.8802 52.5822 49.7552 59.0352L47.3551 55.2686Z" fill="black"/>
<path d="M23.2104 25.3993C25.7997 25.3993 27.9091 26.7801 28.9929 29.1888L29.0787 29.3773L33.4275 27.9005L33.3349 27.6779C31.6509 23.5765 27.7719 21.0273 23.2104 21.0273C20.0035 21.0273 17.3969 22.0553 15.2431 24.1659C13.1029 26.2628 12.0191 28.9011 12.0191 32.0087C12.0191 35.0889 13.1029 37.7135 15.2431 39.8104C17.3969 41.9211 20.0035 42.9489 23.2104 42.9489C27.7719 42.9489 31.6509 40.3997 33.3349 36.3019L33.4275 36.0792L29.0717 34.5989L28.9895 34.7943C28.0188 37.1619 25.8581 38.5769 23.2104 38.5769C21.4063 38.5769 19.8835 37.9465 18.6761 36.7061C17.4552 35.4487 16.8379 33.8692 16.8379 32.0121C16.8379 30.1413 17.4415 28.5927 18.6761 27.2769C19.88 26.0299 21.4063 25.3993 23.2104 25.3993Z" fill="black"/>
<path d="M50.4492 21.4316L44.2517 37.1138L38.0131 21.4316H32.9096L41.6588 42.8358L35.4339 57.932L39.896 58.8195L55.2715 21.4316H50.4492Z" fill="black"/>
<path d="M36.2323 55.9859L35.1451 58.6174C34.929 59.1382 34.4351 59.491 33.8795 59.515C33.5126 59.5287 33.1422 59.539 32.7683 59.539C19.9719 59.5322 8.65034 50.5107 5.8448 38.0801L1.48901 39.0634C3.06327 46.0359 7.01435 52.3643 12.6151 56.8871C18.2811 61.4611 25.4183 63.9863 32.7203 64.0001C32.7306 64.0001 32.7854 64.0001 32.7854 64.0001C33.2142 64.0001 33.6394 63.9898 34.0647 63.9727C36.3558 63.8767 38.4034 62.4411 39.2779 60.3134L40.6978 56.8734L36.2323 55.9859Z" fill="black"/>
</g>
<defs>
<clipPath id="clip0_22_344">
<rect width="64" height="64" fill="white" transform="translate(0.707764)"/>
</clipPath>
</defs>
</svg>
