<svg width="65" height="64" viewBox="0 0 65 64" fill="none" xmlns="http://www.w3.org/2000/svg">
<g clip-path="url(#clip0_22_304)">
<path d="M64.6162 49.5898C62.2882 50.1818 60.8482 49.6158 59.5562 47.6758L50.3682 34.9638L49.0402 33.2038L38.3102 47.7178C37.0842 49.4638 35.7982 50.2238 33.5102 49.6058L47.2502 31.1618L34.4582 14.5018C36.6582 14.0738 38.1782 14.2918 39.5282 16.2618L49.0582 29.1318L58.6582 16.3318C59.8882 14.5858 61.2102 13.9218 63.4182 14.5658L58.4582 21.1418L51.7382 29.8918C50.9382 30.8918 51.0482 31.5758 51.7842 32.5418L64.6162 49.5898ZM0.632211 30.8538L1.75621 25.3258C4.81621 14.3858 17.3562 9.83977 26.0042 16.5998C31.0582 20.5758 32.3142 26.1998 32.0642 32.4998H3.57621C3.14821 43.8398 11.3102 50.6838 21.7162 47.1918C25.3662 45.9658 27.5162 43.1078 28.5922 39.5318C29.1382 37.7398 30.0422 37.4598 31.7262 37.9718C30.8662 42.4438 28.9262 46.1798 24.8262 48.5178C18.7002 52.0178 9.95621 50.8858 5.35621 46.0218C2.61621 43.1998 1.48421 39.6238 0.976211 35.7998C0.896211 35.1678 0.736211 34.5658 0.616211 33.9598C0.626878 32.9251 0.632211 31.8904 0.632211 30.8558V30.8538ZM3.62821 30.0938H29.3722C29.2042 21.8938 24.0982 16.0698 17.1202 16.0198C9.46021 15.9598 3.96021 21.6458 3.62821 30.0938Z" fill="black"/>
</g>
<defs>
<clipPath id="clip0_22_304">
<rect width="64" height="64" fill="white" transform="translate(0.616211)"/>
</clipPath>
</defs>
</svg>
