<svg width="44" height="64" viewBox="0 0 44 64" fill="none" xmlns="http://www.w3.org/2000/svg">
<g clip-path="url(#clip0_22_336)">
<path d="M21.8116 32.0002C21.8116 29.1712 22.9355 26.4581 24.9358 24.4577C26.9362 22.4573 29.6493 21.3335 32.4783 21.3335C35.3073 21.3335 38.0204 22.4573 40.0208 24.4577C42.0212 26.4581 43.145 29.1712 43.145 32.0002C43.145 34.8291 42.0212 37.5422 40.0208 39.5426C38.0204 41.543 35.3073 42.6668 32.4783 42.6668C29.6493 42.6668 26.9362 41.543 24.9358 39.5426C22.9355 37.5422 21.8116 34.8291 21.8116 32.0002Z" fill="#1ABCFE"/>
<path d="M0.478333 53.3332C0.478333 50.5042 1.60214 47.7911 3.60253 45.7907C5.60291 43.7903 8.31602 42.6665 11.145 42.6665H21.8117V53.3332C21.8117 56.1621 20.6879 58.8753 18.6875 60.8756C16.6871 62.876 13.974 63.9998 11.145 63.9998C8.31602 63.9998 5.60291 62.876 3.60253 60.8756C1.60214 58.8753 0.478333 56.1621 0.478333 53.3332Z" fill="#0ACF83"/>
<path d="M21.8116 0V21.3333H32.4783C35.3073 21.3333 38.0204 20.2095 40.0208 18.2091C42.0212 16.2087 43.145 13.4956 43.145 10.6667C43.145 7.83769 42.0212 5.12458 40.0208 3.12419C38.0204 1.12381 35.3073 0 32.4783 0L21.8116 0Z" fill="#FF7262"/>
<path d="M0.478333 10.6667C0.478333 13.4956 1.60214 16.2087 3.60253 18.2091C5.60291 20.2095 8.31602 21.3333 11.145 21.3333H21.8117V0H11.145C8.31602 0 5.60291 1.12381 3.60253 3.12419C1.60214 5.12458 0.478333 7.83769 0.478333 10.6667Z" fill="#F24E1E"/>
<path d="M0.478333 32.0002C0.478333 34.8291 1.60214 37.5422 3.60253 39.5426C5.60291 41.543 8.31602 42.6668 11.145 42.6668H21.8117V21.3335H11.145C8.31602 21.3335 5.60291 22.4573 3.60253 24.4577C1.60214 26.4581 0.478333 29.1712 0.478333 32.0002Z" fill="#A259FF"/>
</g>
<defs>
<clipPath id="clip0_22_336">
<rect width="42.6667" height="64" fill="white" transform="translate(0.478333)"/>
</clipPath>
</defs>
</svg>
