<svg width="64" height="64" viewBox="0 0 64 64" fill="none" xmlns="http://www.w3.org/2000/svg">
<path d="M56.2667 29.4665L34.5333 7.73317C33.8667 7.0665 32.9333 6.6665 32 6.6665C31.0667 6.6665 30.1333 7.0665 29.4667 7.73317L24.8 12.3998L30.2667 17.8665C30.8 17.5998 31.3333 17.4665 32 17.4665C34.2667 17.4665 36 19.1998 36 21.4665C36 22.1332 35.8667 22.6665 35.6 23.1998L40.9333 28.5332C41.4667 28.2665 42 28.1332 42.6667 28.1332C44.9333 28.1332 46.6667 29.8665 46.6667 32.1332C46.6667 34.3998 44.9333 36.1332 42.6667 36.1332C40.4 36.1332 38.6667 34.3998 38.6667 32.1332C38.6667 31.4665 38.8 30.9332 39.0667 30.3998L33.7333 25.0665C33.6 25.0665 33.4667 25.1998 33.3333 25.1998V39.0665C34.9333 39.5998 36 41.0665 36 42.7998C36 45.0665 34.2667 46.7998 32 46.7998C29.7333 46.7998 28 45.0665 28 42.7998C28 41.0665 29.0667 39.5998 30.6667 39.0665V25.0665C29.0667 24.5332 28 23.0665 28 21.3332C28 20.6665 28.1333 20.1332 28.4 19.5998L22.9333 14.1332L7.73332 29.4665C7.06666 30.1332 6.66666 31.0665 6.66666 31.9998C6.66666 32.9332 7.06666 33.8665 7.73332 34.5332L29.4667 56.2665C30.1333 56.9332 31.0667 57.3332 32 57.3332C32.9333 57.3332 33.8667 56.9332 34.5333 56.2665L56.2667 34.5332C56.9333 33.8665 57.3333 32.9332 57.3333 31.9998C57.3333 31.0665 56.9333 30.1332 56.2667 29.4665Z" fill="#F4511E"/>
</svg>
