<svg width="31" height="64" viewBox="0 0 31 64" fill="none" xmlns="http://www.w3.org/2000/svg">
<g clip-path="url(#clip0_22_320)">
<path d="M21.1038 7.13325C18.4059 3.94632 16.0826 0.709589 15.608 0.0373468C15.558 -0.0124489 15.4831 -0.0124489 15.4331 0.0373468C14.9585 0.709589 12.6352 3.94632 9.93727 7.13325C-13.2201 36.5376 13.5845 56.3813 13.5845 56.3813L13.8093 56.5306C14.0092 59.5932 14.5088 64 14.5088 64H15.508H16.5073C16.5073 64 17.0069 59.618 17.2068 56.5306L17.4316 56.3565C17.4566 56.3565 44.2612 36.5376 21.1038 7.13325ZM15.508 55.933C15.508 55.933 14.309 54.9123 13.9842 54.3893V54.3397L15.4331 22.3209C15.4331 22.2213 15.583 22.2213 15.583 22.3209L17.0319 54.3397V54.3893C16.7071 54.9123 15.508 55.933 15.508 55.933Z" fill="#00684A"/>
</g>
<defs>
<clipPath id="clip0_22_320">
<rect width="29.7674" height="64" fill="white" transform="translate(0.512451)"/>
</clipPath>
</defs>
</svg>
