<svg width="67" height="64" viewBox="0 0 67 64" fill="none" xmlns="http://www.w3.org/2000/svg">
<path fill-rule="evenodd" clip-rule="evenodd" d="M39.0633 1.06152C38.6115 1.06152 38.192 1.15861 37.8048 1.28806C38.6277 1.83821 39.0795 2.56636 39.3054 3.39158C39.3215 3.50485 39.3538 3.58576 39.3699 3.69902C39.3861 3.79611 39.4022 3.89319 39.4022 3.99028C39.4667 5.4142 39.0311 5.59219 38.7245 6.4336C38.2566 7.51773 38.3857 8.68276 38.9504 9.62126C38.9988 9.73452 39.0633 9.86397 39.144 9.97724C38.5309 5.88345 41.9354 5.26858 42.5646 3.99028C42.613 2.87379 41.6933 2.12947 40.9673 1.61168C40.2735 1.19097 39.6442 1.06152 39.0633 1.06152ZM44.1943 1.98384C44.1297 2.356 44.1781 2.25891 44.162 2.45309C44.1459 2.58253 44.1459 2.74435 44.1298 2.87379C44.0975 3.00324 44.0652 3.13269 44.0168 3.26214C43.9846 3.39158 43.9362 3.52103 43.8878 3.65048C43.8232 3.77993 43.7748 3.89319 43.7103 4.02264C43.6619 4.08739 43.6296 4.15209 43.5812 4.21681C43.5489 4.26536 43.5166 4.3139 43.4844 4.36244C43.4037 4.47571 43.323 4.58898 43.2424 4.68606C43.1455 4.78315 43.0649 4.89641 42.9519 4.97732V4.99352C42.8551 5.07443 42.7583 5.17151 42.6454 5.25242C42.3065 5.51131 41.9193 5.70548 41.5643 5.9482C41.4514 6.0291 41.3384 6.09383 41.2416 6.19092C41.1287 6.27182 41.0318 6.35272 40.935 6.44981C40.8221 6.54689 40.7414 6.64398 40.6446 6.75725C40.5639 6.85434 40.4671 6.9676 40.4026 7.08087C40.3219 7.19413 40.2412 7.3074 40.1767 7.42067C40.1121 7.55011 40.0637 7.66338 39.9992 7.79283C39.9508 7.92227 39.9024 8.03554 39.8701 8.16499C39.8217 8.31062 39.7895 8.44007 39.7572 8.56952C39.741 8.63427 39.741 8.71514 39.7249 8.77987C39.7088 8.84462 39.7088 8.90931 39.6927 8.97404C39.6927 9.10349 39.6765 9.24912 39.6765 9.37856C39.6765 9.47565 39.6765 9.57273 39.6927 9.66982C39.6927 9.79927 39.7089 9.92871 39.7411 10.0743C39.7573 10.2038 39.7895 10.3332 39.8218 10.4627C39.8702 10.5921 39.9025 10.7216 39.9509 10.851C39.9831 10.9319 40.0315 11.0128 40.0638 11.0776L36.3527 9.63746C35.7235 9.45947 35.1103 9.29766 34.4811 9.15203C34.1422 9.07113 33.8034 8.99022 33.4646 8.90932C32.4965 8.71514 31.5122 8.56952 30.528 8.47243C30.4958 8.47243 30.4796 8.45623 30.4473 8.45623C29.4792 8.35915 28.5273 8.3106 27.5592 8.3106C26.8492 8.3106 26.1393 8.34294 25.4455 8.39151C24.4612 8.45626 23.477 8.58568 22.4927 8.74748C22.2507 8.77982 22.0087 8.8284 21.7667 8.87694C21.2665 8.97402 20.7824 9.08729 20.3145 9.20056C20.0725 9.26531 19.8305 9.33 19.5884 9.39472C19.3464 9.49181 19.1205 9.60508 18.8946 9.70217C18.7171 9.78307 18.5397 9.86397 18.3622 9.94488C18.3299 9.96108 18.2976 9.96108 18.2815 9.97722C18.1201 10.0581 17.9749 10.1228 17.8297 10.2038C17.7813 10.22 17.749 10.2361 17.7168 10.2523C17.5393 10.3332 17.3618 10.4303 17.2166 10.5112C17.1036 10.5597 16.9907 10.6245 16.8939 10.673C16.8455 10.7053 16.7809 10.7378 16.7487 10.7539C16.6035 10.8348 16.4582 10.9157 16.3292 10.9966C16.1839 11.0775 16.0549 11.1584 15.9419 11.2393C15.829 11.3202 15.716 11.385 15.6192 11.4659C15.6031 11.4821 15.587 11.4821 15.5708 11.4982C15.474 11.563 15.3611 11.6438 15.2643 11.7247C15.2643 11.7247 15.2481 11.7409 15.232 11.7571C15.1513 11.8218 15.0707 11.8865 14.99 11.9512C14.9577 11.9674 14.9254 11.9998 14.8932 12.016C14.8125 12.0807 14.7318 12.1616 14.6511 12.2263C14.635 12.2587 14.6027 12.2749 14.5866 12.2911C14.4898 12.3882 14.393 12.4691 14.2961 12.5662C14.28 12.5662 14.28 12.5824 14.2639 12.5985C14.1671 12.6794 14.0703 12.7765 13.9735 12.8736C13.9573 12.8898 13.9573 12.9059 13.9412 12.9059C13.8606 12.9868 13.7799 13.0677 13.6992 13.1648C13.667 13.1972 13.6185 13.2296 13.5863 13.2619C13.5056 13.359 13.4088 13.4561 13.312 13.5532C13.2958 13.5855 13.2636 13.6017 13.2474 13.6341C13.1183 13.7635 13.0054 13.893 12.8763 14.0224C12.8601 14.0386 12.844 14.0547 12.8279 14.071C12.5697 14.346 12.2954 14.6211 12.005 14.8638C11.7146 15.1227 11.408 15.3654 11.1014 15.5758C10.7787 15.8023 10.4722 15.9965 10.1333 16.1907C9.81063 16.3686 9.4718 16.5305 9.11683 16.6761C8.77799 16.8217 8.42302 16.9512 8.06805 17.0644C7.39038 17.2101 6.69657 17.4851 6.09957 17.5337C5.9705 17.5337 5.82528 17.566 5.6962 17.5822C5.55098 17.6146 5.42191 17.647 5.29283 17.6793C5.16375 17.7278 5.03466 17.7764 4.90558 17.8249C4.7765 17.8735 4.64743 17.9382 4.51835 18.0029C4.4054 18.0838 4.27632 18.1486 4.16337 18.2295C4.05043 18.3104 3.93748 18.4074 3.84067 18.5045C3.72773 18.5854 3.61478 18.6987 3.51797 18.7958C3.42116 18.9091 3.32435 19.0061 3.24367 19.1194C3.163 19.2489 3.06619 19.3621 3.00165 19.4916C2.92097 19.6048 2.8403 19.7343 2.77576 19.8637C2.71119 20.0094 2.64668 20.1388 2.59827 20.2844C2.54987 20.4139 2.50146 20.5595 2.45306 20.7051C2.42081 20.8346 2.38849 20.964 2.37238 21.0935C2.37238 21.1097 2.35622 21.1258 2.35622 21.142C2.32398 21.2877 2.32398 21.4818 2.30782 21.5789C2.29166 21.6922 2.27557 21.7893 2.27557 21.9025C2.27557 21.9673 2.27557 22.0482 2.29173 22.1129C2.30789 22.2262 2.32398 22.3232 2.3563 22.4203C2.38854 22.5174 2.42087 22.6145 2.46924 22.7116V22.7278C2.51765 22.8249 2.58219 22.922 2.64672 23.0191C2.71129 23.1161 2.77581 23.2132 2.85648 23.3103C2.93716 23.3912 3.03397 23.4883 3.13078 23.5692C3.22759 23.6663 3.3244 23.7472 3.43734 23.8281C3.82459 24.1679 3.9214 24.2812 4.42158 24.5401C4.50225 24.5886 4.58294 24.621 4.67975 24.6695C4.69591 24.6695 4.71199 24.6857 4.72815 24.6857C4.72815 24.7181 4.72815 24.7343 4.74431 24.7666C4.76047 24.8961 4.79272 25.0255 4.82499 25.155C4.85723 25.3006 4.90567 25.4301 4.95407 25.5433C5.00248 25.6404 5.03475 25.7375 5.08315 25.8346C5.09931 25.8669 5.1154 25.8993 5.13156 25.9155C5.19612 26.0449 5.26064 26.1582 5.32517 26.2715C5.40585 26.3847 5.48653 26.498 5.5672 26.6113C5.64787 26.7083 5.74468 26.8216 5.84149 26.9187C5.93831 27.0158 6.03512 27.0967 6.14807 27.1938C6.14807 27.1938 6.16423 27.21 6.18031 27.21C6.27712 27.2909 6.37393 27.3718 6.47074 27.4365C6.58368 27.5174 6.69663 27.5822 6.82571 27.6469C6.93866 27.7116 7.06774 27.7763 7.19682 27.8249C7.29363 27.8734 7.40657 27.9058 7.51952 27.9381C7.53568 27.9544 7.55176 27.9544 7.58408 27.9705C7.64865 27.9867 7.72929 28.0028 7.79383 28.019C7.74543 28.8928 7.72927 29.718 7.8584 30.0093C8.00361 30.3329 8.71355 29.3459 9.4235 28.2132C9.32669 29.3297 9.26214 30.6403 9.4235 31.0287C9.60098 31.4332 10.5691 30.1711 11.4081 28.7795C22.8478 26.1259 33.2872 34.0545 34.3844 45.2517C34.1746 43.5042 32.0287 42.5333 31.0444 42.7761C30.5604 43.9735 29.7375 45.5106 28.4144 46.4653C28.5274 45.3974 28.479 44.2971 28.2531 43.2291C27.8981 44.7178 27.2043 46.1093 26.2523 47.3067C24.7195 47.42 23.1867 46.6757 22.3799 45.5592C22.3154 45.5106 22.2992 45.4136 22.2508 45.3488C22.2024 45.2356 22.154 45.1223 22.1218 45.009C22.0734 44.8958 22.0411 44.7825 22.025 44.6692C22.0088 44.556 22.0088 44.4427 22.0088 44.3133C22.0088 44.2323 22.0088 44.1514 22.0088 44.0705C22.025 43.9573 22.0572 43.844 22.0895 43.7307C22.1217 43.6175 22.154 43.5042 22.2024 43.3909C22.267 43.2777 22.3154 43.1644 22.396 43.0511C22.6703 42.2744 22.6703 41.6434 22.1701 41.2712C22.0733 41.2065 21.9765 41.158 21.8636 41.1094C21.799 41.0932 21.7184 41.0609 21.6538 41.0447C21.6054 41.0285 21.5732 41.0123 21.5247 40.9961C21.4118 40.9638 21.2988 40.9314 21.1859 40.9152C21.073 40.8829 20.96 40.8667 20.8471 40.8667C20.7341 40.8505 20.605 40.8343 20.4921 40.8343C20.4114 40.8343 20.3307 40.8505 20.2501 40.8505C20.121 40.8505 20.008 40.8668 19.8951 40.8991C19.7822 40.9153 19.6692 40.9314 19.5563 40.9638C19.4433 40.9962 19.3304 41.0286 19.2174 41.0771C19.1045 41.1256 19.0077 41.1742 18.8947 41.2227C18.7979 41.2713 18.7011 41.336 18.5882 41.3845C14.8287 43.844 17.0715 49.6045 19.6369 51.2711C18.6688 51.4491 17.6846 51.6595 17.4103 51.8698C17.3941 51.886 17.3781 51.9021 17.3781 51.9021C18.0719 52.3228 18.7979 52.6788 19.5563 52.9863C20.5889 53.3261 21.6861 53.6335 22.1702 53.763V53.7792C23.5094 54.0542 24.8647 54.1513 26.2362 54.0704C33.384 53.5688 39.241 48.1158 40.306 40.9315C40.3382 41.0771 40.3705 41.2065 40.4028 41.3522C40.4512 41.6434 40.5157 41.9509 40.548 42.2583V42.2745C40.5802 42.4202 40.5964 42.5658 40.6125 42.6952V42.76C40.6287 42.9056 40.6448 43.0512 40.6448 43.1807C40.6609 43.3587 40.677 43.5367 40.677 43.7147V43.9736C40.677 44.0545 40.6932 44.1515 40.6932 44.2325C40.6932 44.3295 40.677 44.4266 40.677 44.5237V44.7502C40.677 44.8635 40.6609 44.9606 40.6609 45.0739C40.6609 45.1386 40.6609 45.2033 40.6447 45.2842C40.6447 45.3975 40.6285 45.5107 40.6285 45.6402C40.6124 45.6887 40.6124 45.7373 40.6124 45.7858C40.5962 45.9153 40.5801 46.0285 40.564 46.158C40.564 46.2065 40.564 46.2551 40.5478 46.3036C40.5316 46.4654 40.4994 46.6111 40.4832 46.7729V46.7891V46.8053C40.451 46.9509 40.4187 47.1127 40.3864 47.2584V47.3069C40.3542 47.4525 40.3219 47.5982 40.2896 47.7438C40.2896 47.76 40.2735 47.7923 40.2735 47.8085C40.2412 47.9542 40.2089 48.0998 40.1605 48.2454V48.294C40.1121 48.4558 40.0637 48.6014 40.0314 48.747C40.0153 48.7632 40.0153 48.7794 40.0153 48.7794C39.9669 48.9412 39.9185 49.103 39.8701 49.2648C39.8055 49.4266 39.7571 49.5722 39.6926 49.734C39.628 49.8959 39.5796 50.0577 39.5151 50.2033C39.4505 50.3651 39.386 50.5107 39.3215 50.6725H39.3053C39.2407 50.8182 39.1762 50.98 39.0955 51.1256C39.0794 51.1742 39.0633 51.2065 39.0471 51.2389C39.031 51.2551 39.031 51.2712 39.0149 51.2874C37.9661 53.4071 36.4171 55.2679 34.4809 56.7242C34.3519 56.8051 34.2228 56.9022 34.0937 56.9993C34.0615 57.0316 34.013 57.0478 33.9808 57.0802C33.8678 57.1611 33.7549 57.242 33.6258 57.3229L33.6742 57.42H33.6903C33.9162 57.3877 34.1421 57.3553 34.368 57.3229H34.3842C34.8037 57.2582 35.2232 57.1773 35.6427 57.0964C35.7557 57.0802 35.8847 57.0478 35.9977 57.0155C36.0784 56.9992 36.1429 56.9831 36.2236 56.9669C36.3365 56.9507 36.4495 56.9184 36.5624 56.9022C36.6592 56.8699 36.756 56.8536 36.8528 56.8213C38.4663 56.4329 40.0314 55.899 41.532 55.2679C38.9665 58.7792 35.5298 61.6108 31.5121 63.4717C33.3677 63.3422 35.2232 63.0348 37.0142 62.517C43.5166 60.5914 48.9864 56.2064 52.2618 50.3003C51.6003 54.0382 50.1158 57.598 47.9215 60.7047C49.4866 59.6691 50.9226 58.4717 52.2295 57.1125C55.8438 53.3262 58.2156 48.5205 59.0224 43.3587C59.571 45.9153 59.7323 48.5528 59.4903 51.1579C71.1398 34.8637 60.4584 17.9708 55.989 13.521C55.9728 13.4887 55.9567 13.4725 55.9567 13.4401C55.9406 13.4563 55.9406 13.4563 55.9406 13.4724C55.9406 13.4562 55.9406 13.4562 55.9244 13.4401C55.9244 13.6343 55.9083 13.8284 55.8922 14.0226C55.8438 14.3948 55.7954 14.7508 55.7308 15.1067C55.6501 15.4627 55.5533 15.8187 55.4565 16.1747C55.3436 16.5145 55.2145 16.8705 55.0693 17.2103C54.9241 17.5339 54.7627 17.8737 54.5852 18.1973C54.4077 18.5048 54.2141 18.8284 54.0044 19.1196C53.7946 19.4271 53.5687 19.7183 53.3428 19.9934C53.1008 20.2847 52.8426 20.5436 52.5845 20.8024C52.4231 20.9481 52.2779 21.0775 52.1166 21.207C51.9875 21.3202 51.8745 21.4173 51.7454 21.5306C51.455 21.7571 51.1646 21.9675 50.8419 22.1616C50.5353 22.3558 50.2126 22.55 49.8899 22.7118C49.5511 22.8736 49.2123 23.0192 48.8734 23.1649C48.5346 23.2943 48.1796 23.4076 47.8246 23.5047C47.4697 23.6017 47.0986 23.6827 46.7436 23.7474C46.3725 23.8121 46.0014 23.8445 45.6464 23.8768C45.3883 23.893 45.1301 23.9092 44.8719 23.9092C44.5008 23.9092 44.1297 23.8768 43.7748 23.8444C43.4037 23.8121 43.0325 23.7635 42.6776 23.6826C42.3065 23.6179 41.9515 23.5208 41.5965 23.4075H41.5804C41.9353 23.3752 42.2903 23.3428 42.6453 23.2781C43.0164 23.2133 43.3713 23.1325 43.7263 23.0354C44.0813 22.9383 44.4363 22.825 44.7751 22.6956C45.1301 22.5661 45.4689 22.4043 45.7916 22.2425C46.1304 22.0807 46.437 21.9027 46.7597 21.7085C47.0663 21.4982 47.3728 21.2878 47.6633 21.0613C47.9537 20.8348 48.228 20.592 48.4862 20.3331C48.7605 20.0904 49.0025 19.8154 49.2445 19.5403C49.4865 19.249 49.7124 18.9578 49.9222 18.6665C49.9544 18.618 49.9867 18.5532 50.019 18.5047C50.1803 18.2458 50.3417 17.9869 50.4869 17.728C50.6644 17.4044 50.8257 17.0808 50.971 16.741C51.1162 16.4012 51.2453 16.0614 51.3582 15.7054C51.4711 15.3656 51.5518 15.0096 51.6325 14.6536C51.6971 14.2815 51.7616 13.9255 51.7938 13.5695C51.8261 13.1973 51.8584 12.8252 51.8584 12.4692C51.8584 12.2103 51.8422 11.9514 51.8262 11.6925C51.7939 11.3203 51.7455 10.9644 51.6971 10.6084C51.6325 10.2362 51.5519 9.88024 51.4551 9.52426C51.3421 9.18446 51.2292 8.82848 51.1001 8.48868C50.971 8.14888 50.8097 7.80908 50.6483 7.48545C50.4708 7.16184 50.2933 6.83822 50.0997 6.53078C49.89 6.22335 49.6802 5.93209 49.4543 5.64083C49.2123 5.36575 48.9703 5.09067 48.7121 4.8156C48.583 4.68615 48.4378 4.54052 48.2926 4.41108C47.5665 3.84474 46.8082 3.31077 46.0498 2.82534C45.9369 2.76059 45.8401 2.71207 45.7271 2.66353C45.1947 2.32373 44.6945 2.14564 44.1943 1.98384Z" fill="#E0234E"/>
</svg>
