<svg width="65" height="64" viewBox="0 0 65 64" fill="none" xmlns="http://www.w3.org/2000/svg">
<g clip-path="url(#clip0_22_289)">
<mask id="mask0_22_289" style="mask-type:alpha" maskUnits="userSpaceOnUse" x="0" y="0" width="65" height="64">
<path d="M32.297 64C49.9701 64 64.297 49.6731 64.297 32C64.297 14.3269 49.9701 0 32.297 0C14.6239 0 0.296997 14.3269 0.296997 32C0.296997 49.6731 14.6239 64 32.297 64Z" fill="black"/>
</mask>
<g mask="url(#mask0_22_289)">
<path d="M32.297 62.9336C49.381 62.9336 63.2303 49.0842 63.2303 32.0002C63.2303 14.9162 49.381 1.06689 32.297 1.06689C15.213 1.06689 1.36365 14.9162 1.36365 32.0002C1.36365 49.0842 15.213 62.9336 32.297 62.9336Z" fill="black" stroke="white" stroke-width="6"/>
<path d="M53.4553 56.0073L24.8808 19.2002H19.4969V44.7895H23.804V24.6699L50.0744 58.6118C51.2598 57.8185 52.389 56.9478 53.4553 56.0073Z" fill="url(#paint0_linear_22_289)"/>
<path d="M45.4526 19.2002H41.1859V44.8002H45.4526V19.2002Z" fill="url(#paint1_linear_22_289)"/>
</g>
</g>
<defs>
<linearGradient id="paint0_linear_22_289" x1="39.0525" y1="41.4224" x2="51.6747" y2="57.0669" gradientUnits="userSpaceOnUse">
<stop stop-color="white"/>
<stop offset="1" stop-color="white" stop-opacity="0"/>
</linearGradient>
<linearGradient id="paint1_linear_22_289" x1="43.3192" y1="19.2002" x2="43.2478" y2="38.0002" gradientUnits="userSpaceOnUse">
<stop stop-color="white"/>
<stop offset="1" stop-color="white" stop-opacity="0"/>
</linearGradient>
<clipPath id="clip0_22_289">
<rect width="64" height="64" fill="white" transform="translate(0.296997)"/>
</clipPath>
</defs>
</svg>
