<svg width="57" height="64" viewBox="0 0 57 64" fill="none" xmlns="http://www.w3.org/2000/svg">
<g clip-path="url(#clip0_22_299)">
<path d="M28.5561 64C27.6981 64 26.8974 63.7668 26.1538 63.3586L18.5464 58.7517C17.4025 58.1102 17.9744 57.877 18.3177 57.7603C19.862 57.2355 20.148 57.1189 21.7495 56.1859C21.9211 56.0692 22.1499 56.1275 22.3215 56.2442L28.1557 59.8014C28.3845 59.918 28.6705 59.918 28.8421 59.8014L51.664 46.3307C51.8928 46.214 52.0072 45.9808 52.0072 45.6892V18.806C52.0072 18.5145 51.8928 18.2812 51.664 18.1646L28.8421 4.75223C28.6133 4.63561 28.3272 4.63561 28.1557 4.75223L5.33374 18.1646C5.10495 18.2812 4.99055 18.5728 4.99055 18.806V45.6892C4.99055 45.9224 5.10495 46.214 5.33374 46.3307L11.5683 50.0045C14.943 51.7539 17.0593 49.7129 17.0593 47.6719V21.1386C17.0593 20.7888 17.3453 20.4389 17.7457 20.4389H20.6628C21.006 20.4389 21.3491 20.7305 21.3491 21.1386V47.6719C21.3491 52.2788 18.8896 54.9613 14.5998 54.9613C13.2842 54.9613 12.2547 54.9613 9.33756 53.5034L3.33181 50.0045C1.84467 49.1297 0.929504 47.4969 0.929504 45.7475V18.8644C0.929504 17.115 1.84467 15.4822 3.33181 14.6074L26.1538 1.13672C27.5837 0.320313 29.5284 0.320313 30.9584 1.13672L53.7803 14.6074C55.2675 15.4822 56.1826 17.115 56.1826 18.8644V45.7475C56.1826 47.4969 55.2675 49.1297 53.7803 50.0045L30.9584 63.4752C30.272 63.7668 29.4141 64 28.5561 64Z" fill="#5FA04E"/>
<path d="M35.6486 45.5143C25.639 45.5143 23.5799 40.8491 23.5799 36.8837C23.5799 36.5339 23.8659 36.184 24.2662 36.184H27.2405C27.5837 36.184 27.8697 36.4172 27.8697 36.7671C28.3273 39.8577 29.6429 41.374 35.7058 41.374C40.5104 41.374 42.5696 40.266 42.5696 37.6418C42.5696 36.1256 41.9976 35.0176 34.5046 34.2595C28.2701 33.6181 24.3807 32.2186 24.3807 27.1451C24.3807 22.4216 28.2701 19.6226 34.7907 19.6226C42.112 19.6226 45.7154 22.1884 46.173 27.7866C46.173 27.9616 46.1158 28.1365 46.0014 28.3115C45.8871 28.4281 45.7154 28.5447 45.5438 28.5447H42.5124C42.2263 28.5447 41.9404 28.3115 41.8832 28.0198C41.1968 24.8126 39.4237 23.7629 34.7335 23.7629C29.4712 23.7629 28.8421 25.629 28.8421 27.0285C28.8421 28.7196 29.5857 29.2445 36.6782 30.1775C43.7135 31.1106 47.031 32.4518 47.031 37.4669C47.031 42.5986 42.8555 45.5143 35.6486 45.5143Z" fill="#5FA04E"/>
</g>
<defs>
<clipPath id="clip0_22_299">
<rect width="56.32" height="64" fill="white" transform="translate(0.296631)"/>
</clipPath>
</defs>
</svg>
