<svg width="71" height="64" viewBox="0 0 71 64" fill="none" xmlns="http://www.w3.org/2000/svg">
<g clip-path="url(#clip0_22_281)">
<path d="M35.2283 38.7725C38.9007 38.7725 41.8777 35.7404 41.8777 32C41.8777 28.2597 38.9007 25.2275 35.2283 25.2275C31.556 25.2275 28.579 28.2597 28.579 32C28.579 35.7404 31.556 38.7725 35.2283 38.7725Z" fill="#087EA4"/>
<path d="M35.2283 47.2379C53.59 47.2379 68.4751 40.4156 68.4751 31.9998C68.4751 23.584 53.59 16.7617 35.2283 16.7617C16.8666 16.7617 1.98157 23.584 1.98157 31.9998C1.98157 40.4156 16.8666 47.2379 35.2283 47.2379Z" stroke="#087EA4" stroke-width="3"/>
<path d="M22.2716 39.619C31.4525 55.8152 44.6959 65.5336 51.8516 61.3257C59.0074 57.1178 57.3657 40.5771 48.1849 24.3809C39.0041 8.18475 25.7606 -1.53366 18.6049 2.67422C11.4491 6.88211 13.0908 23.4228 22.2716 39.619Z" stroke="#087EA4" stroke-width="3"/>
<path d="M22.2717 24.3811C13.0909 40.5772 11.4492 57.118 18.605 61.3259C25.7607 65.5337 39.0041 55.8153 48.185 39.6192C57.3658 23.423 59.0075 6.88229 51.8517 2.67441C44.696 -1.53348 31.4525 8.18494 22.2717 24.3811Z" stroke="#087EA4" stroke-width="3"/>
</g>
<defs>
<clipPath id="clip0_22_281">
<rect width="69.8182" height="64" fill="white" transform="translate(0.319214)"/>
</clipPath>
</defs>
</svg>
