<svg width="65" height="64" viewBox="0 0 65 64" fill="none" xmlns="http://www.w3.org/2000/svg">
<path d="M53.4482 34.6079C51.3976 34.6186 49.6216 35.1106 48.1336 35.8452C47.5896 34.7586 47.0376 33.8026 46.9456 33.0919C46.8376 32.2626 46.7122 31.7666 46.8429 30.7786C46.9736 29.7906 47.5456 28.3906 47.5376 28.2852C47.5296 28.1799 47.4096 27.6772 46.2269 27.6679C45.0442 27.6599 44.0322 27.8959 43.9136 28.2079C43.7949 28.5199 43.5669 29.2226 43.4256 29.9559C43.2189 31.0279 41.0642 34.8532 39.8416 36.8532C39.4416 36.0719 39.1016 35.3839 39.0309 34.8399C38.9229 34.0106 38.7976 33.5146 38.9282 32.5266C39.0589 31.5386 39.6309 30.1386 39.6229 30.0332C39.6149 29.9279 39.4949 29.4252 38.3122 29.4159C37.1296 29.4079 36.1176 29.6439 35.9989 29.9559C35.8802 30.2679 35.7522 30.9972 35.5109 31.7039C35.2682 32.4092 32.4056 38.7892 31.6549 40.4439C31.2722 41.2866 30.9402 41.9639 30.7056 42.4252L30.7042 42.4226C30.7042 42.4226 30.6896 42.4532 30.6656 42.5052C30.4642 42.8986 30.3456 43.1159 30.3456 43.1159C30.3456 43.1159 30.3469 43.1186 30.3496 43.1239C30.1896 43.4132 30.0189 43.6812 29.9349 43.6812C29.8762 43.6812 29.7576 42.9119 29.9602 41.8559C30.3869 39.6426 31.4096 36.1919 31.4002 36.0719C31.3949 36.0106 31.5909 35.4092 30.7322 35.0946C29.8976 34.7892 29.6002 35.2986 29.5242 35.2999C29.4509 35.3012 29.3962 35.4799 29.3962 35.4799C29.3962 35.4799 30.3256 31.5986 27.6229 31.5986C25.9322 31.5986 23.5909 33.4479 22.4376 35.1239C21.7096 35.5212 20.1509 36.3719 18.4989 37.2799C17.8642 37.6292 17.2162 37.9852 16.6016 38.3239C16.5602 38.2772 16.5176 38.2319 16.4749 38.1852C13.1962 34.6879 7.13758 32.2146 7.39358 27.5119C7.48692 25.8026 8.08158 21.3012 19.0376 15.8426C28.0122 11.3706 35.1976 12.6012 36.4389 15.3279C38.2122 19.2252 32.5989 26.4666 23.2789 27.5119C19.7282 27.9106 17.8576 26.5332 17.3922 26.0212C16.9029 25.4812 16.8296 25.4572 16.6469 25.5586C16.3496 25.7239 16.5376 26.1999 16.6469 26.4839C16.9256 27.2079 18.0669 28.4919 20.0136 29.1319C21.7269 29.6946 25.8962 30.0026 30.9376 28.0519C36.5856 25.8679 40.9949 19.7906 39.6989 14.7119C38.3816 9.54658 29.8162 7.84791 21.7096 10.7279C16.8789 12.4426 11.6562 15.1332 7.90025 18.6452C3.43491 22.8212 2.72292 26.4572 3.01625 27.9759C4.05892 33.3732 11.4976 36.8879 14.4762 39.4919C14.3296 39.5732 14.1909 39.6492 14.0656 39.7186C12.5722 40.4572 6.90158 43.4252 5.48291 46.5599C3.87358 50.1159 5.73892 52.6679 6.97358 53.0119C10.7989 54.0759 14.7242 52.1612 16.8349 49.0146C18.9442 45.8692 18.6869 41.7719 17.7189 39.9026C17.7069 39.8799 17.6936 39.8572 17.6816 39.8332C18.0669 39.6052 18.4602 39.3732 18.8496 39.1439C19.6096 38.6972 20.3562 38.2812 21.0029 37.9292C20.6402 38.9212 20.3749 40.1119 20.2376 41.8306C20.0749 43.8492 20.9029 46.4586 21.9856 47.4852C22.4629 47.9372 23.0362 47.9479 23.3989 47.9479C24.6589 47.9479 25.2336 46.8999 25.8669 45.6599C26.6429 44.1399 27.3322 42.3692 27.3322 42.3692C27.3322 42.3692 26.4682 47.1506 28.8229 47.1506C29.6816 47.1506 30.5442 46.0372 30.9296 45.4706C30.9309 45.4772 30.9309 45.4799 30.9309 45.4799C30.9309 45.4799 30.9536 45.4426 30.9976 45.3692C31.0869 45.2332 31.1376 45.1466 31.1376 45.1466C31.1376 45.1466 31.1389 45.1372 31.1416 45.1212C31.4869 44.5226 32.2522 43.1572 33.3989 40.9052C34.8816 37.9959 36.3029 34.3506 36.3029 34.3506C36.3029 34.3506 36.4349 35.2412 36.8682 36.7159C37.1229 37.5826 37.6642 38.5412 38.0922 39.4612C37.7482 39.9386 37.5376 40.2119 37.5376 40.2119C37.5376 40.2119 37.5389 40.2172 37.5429 40.2266C37.2682 40.5919 36.9602 40.9852 36.6376 41.3692C35.4669 42.7626 34.0736 44.3546 33.8869 44.8132C33.6669 45.3546 33.7189 45.7519 34.1442 46.0732C34.4549 46.3066 35.0069 46.3439 35.5842 46.3052C36.6362 46.2346 37.3749 45.9732 37.7402 45.8146C38.3096 45.6132 38.9722 45.2972 39.5936 44.8399C40.7416 43.9959 41.4336 42.7892 41.3669 41.1892C41.3296 40.3079 41.0496 39.4346 40.6936 38.6106C40.7976 38.4612 40.9016 38.3092 41.0069 38.1572C42.8162 35.5119 44.2202 32.6052 44.2202 32.6052C44.2202 32.6052 44.3522 33.4959 44.7856 34.9706C45.0042 35.7159 45.4376 36.5306 45.8269 37.3279C44.1256 38.7106 43.0709 40.3172 42.7042 41.3706C42.0269 43.3199 42.5576 44.2026 43.5522 44.4039C44.0029 44.4946 44.6402 44.2879 45.1189 44.0852C45.7149 43.8879 46.4309 43.5586 47.1002 43.0666C48.2482 42.2226 49.3522 41.0412 49.2856 39.4426C49.2549 38.7146 49.0576 37.9919 48.7896 37.2986C50.2322 36.6972 52.0989 36.3639 54.4776 36.6412C59.5802 37.2372 60.5802 40.4226 60.3896 41.7559C60.1976 43.0892 59.1282 43.8226 58.7696 44.0439C58.4122 44.2652 58.3029 44.3426 58.3322 44.5066C58.3762 44.7452 58.5416 44.7372 58.8469 44.6852C59.2669 44.6146 61.5256 43.6012 61.6229 41.1399C61.7442 38.0119 58.7509 34.5799 53.4482 34.6079ZM14.1189 47.8666C12.4282 49.7106 10.0682 50.4066 9.05491 49.8199C7.96158 49.1866 8.39491 46.4719 10.4682 44.5146C11.7322 43.3226 13.3642 42.2239 14.4469 41.5479C14.6936 41.3999 15.0549 41.1826 15.4949 40.9186C15.5682 40.8772 15.6096 40.8546 15.6096 40.8546L15.6082 40.8519C15.6936 40.8012 15.7802 40.7492 15.8696 40.6946C16.6256 43.4799 15.8936 45.9319 14.1189 47.8666ZM26.4322 39.4972C25.8442 40.9319 24.6122 44.6039 23.8616 44.4066C23.2176 44.2372 22.8256 41.4466 23.7336 38.6999C24.1896 37.3172 25.1656 35.6652 25.7389 35.0239C26.6616 33.9919 27.6776 33.6546 27.9242 34.0732C28.2376 34.6066 26.8016 38.5972 26.4322 39.4972ZM36.6042 44.3506C36.3549 44.4812 36.1256 44.5626 36.0202 44.4999C35.9416 44.4532 36.1229 44.2812 36.1229 44.2812C36.1229 44.2812 37.3949 42.9119 37.8962 42.2892C38.1882 41.9266 38.5256 41.4959 38.8936 41.0159C38.8962 41.0639 38.8976 41.1119 38.8976 41.1586C38.8949 42.7986 37.3109 43.9052 36.6042 44.3506ZM44.4402 42.5639C44.2536 42.4319 44.2856 42.0039 44.8976 40.6692C45.1376 40.1452 45.6869 39.2639 46.6389 38.4212C46.7496 38.7679 46.8162 39.0999 46.8149 39.4092C46.8029 41.4732 45.3309 42.2439 44.4402 42.5639Z" fill="#F06292"/>
</svg>
