<svg width="65" height="64" viewBox="0 0 65 64" fill="none" xmlns="http://www.w3.org/2000/svg">
<path fill-rule="evenodd" clip-rule="evenodd" d="M11.3666 55.604L9.63056 9.37595C9.57589 7.84929 10.7492 6.55729 12.2732 6.46395L43.0839 4.53729L45.4372 5.33329L48.4972 4.19862L51.5852 4.00529C53.1359 3.90662 54.4732 5.08395 54.5732 6.63462C54.5772 6.69462 54.5786 6.75595 54.5786 6.81729V57.1866C54.5772 58.7426 53.3146 60.0026 51.7586 60.0013C51.7172 60.0013 51.6759 60 51.6359 59.9986L14.0546 58.3106C12.5906 58.2453 11.4226 57.0693 11.3666 55.604Z" fill="#FF4081"/>
<path fill-rule="evenodd" clip-rule="evenodd" d="M48.4946 4.19873L43.0852 4.53473L42.8226 10.8827C42.8132 11.1147 42.9932 11.3094 43.2252 11.3201C43.3226 11.3241 43.4172 11.2947 43.4946 11.2361L45.9586 9.3654L48.0412 11.0067C48.2226 11.1507 48.4879 11.1201 48.6306 10.9387C48.6919 10.8601 48.7239 10.7627 48.7212 10.6627L48.4972 4.20006L48.4946 4.19873ZM44.2839 25.4507C43.2959 26.2201 35.9146 26.7441 35.9146 25.6494C36.0719 21.4694 34.2012 21.2867 33.1599 21.2867C32.1746 21.2867 30.5106 21.5841 30.5106 23.8241C30.5106 26.1054 32.9412 27.3934 35.7946 28.9054C39.8466 31.0534 44.7546 33.6547 44.7546 40.1947C44.7546 46.4667 39.6586 49.9281 33.1626 49.9281C26.4572 49.9281 20.5959 47.2147 21.2572 37.8094C21.5172 36.7067 30.0439 36.9694 30.0439 37.8094C29.9372 41.6907 30.8226 42.8321 33.0572 42.8321C34.7732 42.8321 35.5519 41.8854 35.5519 40.2947C35.5519 37.8841 33.0212 36.4614 30.1066 34.8267C26.1612 32.6121 21.5186 30.0054 21.5186 24.0214C21.5186 18.0521 25.6239 14.0707 32.9532 14.0707C40.2826 14.0707 44.2839 17.9921 44.2839 25.4507Z" fill="white"/>
</svg>
