<svg width="106" height="64" viewBox="0 0 106 64" fill="none" xmlns="http://www.w3.org/2000/svg">
<g clip-path="url(#clip0_22_328)">
<mask id="mask0_22_328" style="mask-type:luminance" maskUnits="userSpaceOnUse" x="0" y="0" width="106" height="63">
<path d="M0.688232 0H105.416V62.8364H0.688232V0Z" fill="white"/>
</mask>
<g mask="url(#mask0_22_328)">
<path fill-rule="evenodd" clip-rule="evenodd" d="M53.0519 0C39.0882 0 30.361 6.98182 26.8701 20.9455C32.1064 13.9636 38.2155 11.3455 45.1973 13.0909C49.1808 14.0858 52.0279 16.9775 55.1794 20.1755C60.313 25.3867 66.2553 31.4182 79.2337 31.4182C93.1973 31.4182 101.925 24.4364 105.416 10.4727C100.179 17.4545 94.07 20.0727 87.0882 18.3273C83.1047 17.3324 80.2577 14.4407 77.1062 11.2427C71.9726 6.03151 66.0303 0 53.0519 0ZM26.8701 31.4182C12.9064 31.4182 4.17914 38.4 0.688232 52.3636C5.9246 45.3818 12.0337 42.7636 19.0155 44.5091C22.999 45.5059 25.8461 48.3956 28.9976 51.5937C34.1311 56.8048 40.0734 62.8364 53.0519 62.8364C67.0155 62.8364 75.7428 55.8545 79.2337 41.8909C73.9973 48.8727 67.8882 51.4909 60.9064 49.7455C56.9229 48.7505 54.0759 45.8589 50.9244 42.6608C45.7908 37.4497 39.8485 31.4182 26.8701 31.4182Z" fill="#38BDF8"/>
</g>
</g>
<defs>
<clipPath id="clip0_22_328">
<rect width="104.727" height="64" fill="white" transform="translate(0.688232)"/>
</clipPath>
</defs>
</svg>
